# xmcd
#
# Track frame offsets:
#	150
#	27295
#	48045
#	66419
#	82205
#	100562
#	123358
#	134275
#	150198
#	168937
#	180345
#	204013
#	221903
#	237222
#	261567
#	283414
#
# Disc length: 4032 seconds
#
# Revision: 1
# Processed by: cddbd v1.5.2PL0 Copyright (c) Steve Scherf et al.
# Submitted via: audiograbber 1.83.01
#
DISCID=dc0fbe10
DTITLE=The 103rd Street Gospel Choir - Gospel Christmas
DYEAR=1900
DGENRE=
TTITLE0=The First Noel
TTITLE1=White Christmas
TTITLE2=It Isn't Christmas
TTITLE3=When A Child Is Born
TTITLE4=Silver Bells
TTITLE5=Silent Night, Holy Night
TTITLE6=Joy To The World
TTITLE7=Hark! The Herald Angel Sing
TTITLE8=O Come All Ye Faithfull
TTITLE9=Christmas Comes To Us All Once A Year
TTITLE10=Sweet Little Jesus Boy
TTITLE11=For Unto Us A Child Is Born
TTITLE12=The Most Beautiful Night Of The Year
TTITLE13=What Can I Give
TTITLE14=Ooh Child
TTITLE15=A Star Stood Still
EXTD=
EXTT0=
EXTT1=
EXTT2=
EXTT3=
EXTT4=
EXTT5=
EXTT6=
EXTT7=
EXTT8=
EXTT9=
EXTT10=
EXTT11=
EXTT12=
EXTT13=
EXTT14=
EXTT15=
PLAYORDER=
